<mxfile host="Electron" agent="Mozilla/5.0 (Windows NT 10.0; Win64; x64) AppleWebKit/537.36 (KHTML, like Gecko) draw.io/23.1.5 Chrome/120.0.6099.109 Electron/28.1.0 Safari/537.36" modified="2025-01-17T02:59:14.239Z" etag="Zn61UO7o_exC_gtCd7AZ" version="23.1.5" type="device">
  <diagram name="Page-1" id="W7fDYBC-f9vwLgxFVzyM">
    <mxGraphModel dx="4320" dy="2528" grid="0" gridSize="10" guides="1" tooltips="1" connect="1" arrows="1" fold="1" page="0" pageScale="1" pageWidth="827" pageHeight="1169" math="0" shadow="0">
      <root>
        <mxCell id="0" />
        <mxCell id="1" parent="0" />
        <mxCell id="I-pay93XQwYCPUHcB1Gg-8" value="&lt;font style=&quot;font-size: 18px;&quot;&gt;NotFound()&lt;/font&gt;" style="shape=callout;whiteSpace=wrap;html=1;boundedLbl=1;flipH=0;direction=east;fillStyle=auto;shadow=0;perimeter=calloutPerimeter;" parent="1" vertex="1">
          <mxGeometry x="815" y="1509.29" width="120" height="80" as="geometry" />
        </mxCell>
        <mxCell id="YD1cp8Vs7nDSuRFwtXO4-1" value="&lt;font style=&quot;font-size: 18px;&quot;&gt;Start&lt;/font&gt;" style="ellipse;whiteSpace=wrap;html=1;fillColor=#d5e8d4;strokeColor=#82b366;" parent="1" vertex="1">
          <mxGeometry x="782.5" y="-194" width="120" height="80" as="geometry" />
        </mxCell>
        <mxCell id="YD1cp8Vs7nDSuRFwtXO4-2" value="&lt;font style=&quot;font-size: 18px;&quot;&gt;Register&lt;/font&gt;" style="rounded=0;whiteSpace=wrap;html=1;" parent="1" vertex="1">
          <mxGeometry x="1002.5" y="36" width="120" height="60" as="geometry" />
        </mxCell>
        <mxCell id="YD1cp8Vs7nDSuRFwtXO4-3" value="" style="endArrow=classic;html=1;rounded=0;entryX=0.5;entryY=0;entryDx=0;entryDy=0;exitX=0.5;exitY=1;exitDx=0;exitDy=0;" parent="1" source="YD1cp8Vs7nDSuRFwtXO4-1" target="YD1cp8Vs7nDSuRFwtXO4-5" edge="1">
          <mxGeometry width="50" height="50" relative="1" as="geometry">
            <mxPoint x="817.5" y="-104" as="sourcePoint" />
            <mxPoint x="1287.5" y="-4" as="targetPoint" />
            <Array as="points">
              <mxPoint x="842.5" y="-44" />
              <mxPoint x="552.5" y="-44" />
            </Array>
          </mxGeometry>
        </mxCell>
        <mxCell id="YD1cp8Vs7nDSuRFwtXO4-4" value="" style="endArrow=classic;html=1;rounded=0;exitX=0.5;exitY=1;exitDx=0;exitDy=0;entryX=0.5;entryY=0;entryDx=0;entryDy=0;" parent="1" source="YD1cp8Vs7nDSuRFwtXO4-1" target="YD1cp8Vs7nDSuRFwtXO4-2" edge="1">
          <mxGeometry width="50" height="50" relative="1" as="geometry">
            <mxPoint x="622.5" y="-24" as="sourcePoint" />
            <mxPoint x="672.5" y="-74" as="targetPoint" />
            <Array as="points">
              <mxPoint x="842.5" y="-44" />
              <mxPoint x="1062.5" y="-44" />
            </Array>
          </mxGeometry>
        </mxCell>
        <mxCell id="YD1cp8Vs7nDSuRFwtXO4-5" value="&lt;span style=&quot;font-size: 18px;&quot;&gt;Login&lt;/span&gt;" style="rounded=0;whiteSpace=wrap;html=1;" parent="1" vertex="1">
          <mxGeometry x="492.5" y="36" width="120" height="60" as="geometry" />
        </mxCell>
        <mxCell id="YD1cp8Vs7nDSuRFwtXO4-6" value="User exist" style="rhombus;whiteSpace=wrap;html=1;" parent="1" vertex="1">
          <mxGeometry x="992.5" y="176" width="140" height="80" as="geometry" />
        </mxCell>
        <mxCell id="YD1cp8Vs7nDSuRFwtXO4-7" value="&lt;font style=&quot;font-size: 15px;&quot;&gt;Yes&lt;/font&gt;" style="endArrow=classic;html=1;rounded=0;exitX=1;exitY=0.5;exitDx=0;exitDy=0;entryX=0.5;entryY=0;entryDx=0;entryDy=0;" parent="1" source="YD1cp8Vs7nDSuRFwtXO4-6" target="YD1cp8Vs7nDSuRFwtXO4-9" edge="1">
          <mxGeometry x="-0.625" width="50" height="50" relative="1" as="geometry">
            <mxPoint x="1122.5" y="256" as="sourcePoint" />
            <mxPoint x="1212.5" y="216" as="targetPoint" />
            <Array as="points">
              <mxPoint x="1232.5" y="216" />
            </Array>
            <mxPoint as="offset" />
          </mxGeometry>
        </mxCell>
        <mxCell id="YD1cp8Vs7nDSuRFwtXO4-8" value="" style="endArrow=classic;html=1;rounded=0;exitX=0.5;exitY=1;exitDx=0;exitDy=0;entryX=0.5;entryY=0;entryDx=0;entryDy=0;" parent="1" source="YD1cp8Vs7nDSuRFwtXO4-2" target="YD1cp8Vs7nDSuRFwtXO4-6" edge="1">
          <mxGeometry width="50" height="50" relative="1" as="geometry">
            <mxPoint x="1202.5" y="226" as="sourcePoint" />
            <mxPoint x="1252.5" y="176" as="targetPoint" />
          </mxGeometry>
        </mxCell>
        <mxCell id="YD1cp8Vs7nDSuRFwtXO4-9" value="User alredy exist" style="shape=callout;whiteSpace=wrap;html=1;boundedLbl=1;fixedSize=1;perimeter=calloutPerimeter;" parent="1" vertex="1">
          <mxGeometry x="1172.5" y="276" width="120" height="80" as="geometry" />
        </mxCell>
        <mxCell id="YD1cp8Vs7nDSuRFwtXO4-11" value="End" style="ellipse;whiteSpace=wrap;html=1;fillColor=#f8cecc;strokeColor=#b85450;" parent="1" vertex="1">
          <mxGeometry x="1172.5" y="416" width="120" height="80" as="geometry" />
        </mxCell>
        <mxCell id="YD1cp8Vs7nDSuRFwtXO4-12" value="" style="endArrow=classic;html=1;rounded=0;exitX=0.523;exitY=0.865;exitDx=0;exitDy=0;exitPerimeter=0;" parent="1" source="YD1cp8Vs7nDSuRFwtXO4-9" target="YD1cp8Vs7nDSuRFwtXO4-11" edge="1">
          <mxGeometry width="50" height="50" relative="1" as="geometry">
            <mxPoint x="1202.5" y="226" as="sourcePoint" />
            <mxPoint x="1252.5" y="176" as="targetPoint" />
          </mxGeometry>
        </mxCell>
        <mxCell id="YD1cp8Vs7nDSuRFwtXO4-13" value="&lt;font style=&quot;font-size: 14px;&quot;&gt;No&lt;/font&gt;" style="endArrow=classic;html=1;rounded=0;exitX=0;exitY=0.5;exitDx=0;exitDy=0;entryX=0.42;entryY=-0.047;entryDx=0;entryDy=0;entryPerimeter=0;" parent="1" target="YD1cp8Vs7nDSuRFwtXO4-14" edge="1">
          <mxGeometry x="-0.6961" width="50" height="50" relative="1" as="geometry">
            <mxPoint x="993.5" y="216" as="sourcePoint" />
            <mxPoint x="893.5" y="216" as="targetPoint" />
            <Array as="points">
              <mxPoint x="912.5" y="216" />
            </Array>
            <mxPoint as="offset" />
          </mxGeometry>
        </mxCell>
        <mxCell id="YD1cp8Vs7nDSuRFwtXO4-14" value="Register and save user&amp;nbsp;" style="rounded=0;whiteSpace=wrap;html=1;" parent="1" vertex="1">
          <mxGeometry x="862.5" y="276" width="120" height="60" as="geometry" />
        </mxCell>
        <mxCell id="YD1cp8Vs7nDSuRFwtXO4-15" value="User registered Succesfully" style="shape=callout;whiteSpace=wrap;html=1;boundedLbl=1;fixedSize=1;perimeter=calloutPerimeter;" parent="1" vertex="1">
          <mxGeometry x="862.5" y="376" width="120" height="80" as="geometry" />
        </mxCell>
        <mxCell id="YD1cp8Vs7nDSuRFwtXO4-16" value="" style="endArrow=classic;html=1;rounded=0;exitX=0.5;exitY=1;exitDx=0;exitDy=0;" parent="1" source="YD1cp8Vs7nDSuRFwtXO4-14" target="YD1cp8Vs7nDSuRFwtXO4-15" edge="1">
          <mxGeometry width="50" height="50" relative="1" as="geometry">
            <mxPoint x="972.5" y="176" as="sourcePoint" />
            <mxPoint x="1022.5" y="126" as="targetPoint" />
          </mxGeometry>
        </mxCell>
        <mxCell id="YD1cp8Vs7nDSuRFwtXO4-17" value="End" style="ellipse;whiteSpace=wrap;html=1;fillColor=#f8cecc;strokeColor=#b85450;" parent="1" vertex="1">
          <mxGeometry x="862.5" y="496" width="120" height="80" as="geometry" />
        </mxCell>
        <mxCell id="YD1cp8Vs7nDSuRFwtXO4-19" value="" style="endArrow=classic;html=1;rounded=0;exitX=0.507;exitY=0.885;exitDx=0;exitDy=0;exitPerimeter=0;" parent="1" source="YD1cp8Vs7nDSuRFwtXO4-15" target="YD1cp8Vs7nDSuRFwtXO4-17" edge="1">
          <mxGeometry width="50" height="50" relative="1" as="geometry">
            <mxPoint x="972.5" y="326" as="sourcePoint" />
            <mxPoint x="1022.5" y="276" as="targetPoint" />
          </mxGeometry>
        </mxCell>
        <mxCell id="YD1cp8Vs7nDSuRFwtXO4-21" value="" style="endArrow=classic;html=1;rounded=0;exitX=0.5;exitY=1;exitDx=0;exitDy=0;" parent="1" source="YD1cp8Vs7nDSuRFwtXO4-5" target="YD1cp8Vs7nDSuRFwtXO4-22" edge="1">
          <mxGeometry width="50" height="50" relative="1" as="geometry">
            <mxPoint x="-177.5" y="226" as="sourcePoint" />
            <mxPoint x="212.5" y="156" as="targetPoint" />
          </mxGeometry>
        </mxCell>
        <mxCell id="YD1cp8Vs7nDSuRFwtXO4-22" value="&lt;font style=&quot;font-size: 16px;&quot;&gt;Check user not invalid&lt;/font&gt;" style="rhombus;whiteSpace=wrap;html=1;" parent="1" vertex="1">
          <mxGeometry x="457.5" y="156" width="190" height="90" as="geometry" />
        </mxCell>
        <mxCell id="YD1cp8Vs7nDSuRFwtXO4-23" value="&lt;font style=&quot;font-size: 16px;&quot;&gt;No&lt;/font&gt;" style="endArrow=classic;html=1;rounded=0;exitX=0;exitY=0.5;exitDx=0;exitDy=0;entryX=0.5;entryY=0;entryDx=0;entryDy=0;" parent="1" source="YD1cp8Vs7nDSuRFwtXO4-22" target="YD1cp8Vs7nDSuRFwtXO4-24" edge="1">
          <mxGeometry width="50" height="50" relative="1" as="geometry">
            <mxPoint x="112.5" y="216" as="sourcePoint" />
            <mxPoint x="112.5" y="356" as="targetPoint" />
            <Array as="points">
              <mxPoint x="402.5" y="201" />
            </Array>
          </mxGeometry>
        </mxCell>
        <mxCell id="YD1cp8Vs7nDSuRFwtXO4-24" value="&lt;font style=&quot;font-size: 16px;&quot;&gt;Invalid username or password&lt;/font&gt;" style="shape=callout;whiteSpace=wrap;html=1;boundedLbl=1;fixedSize=1;perimeter=calloutPerimeter;" parent="1" vertex="1">
          <mxGeometry x="342.5" y="286" width="120" height="80" as="geometry" />
        </mxCell>
        <mxCell id="YD1cp8Vs7nDSuRFwtXO4-25" value="End" style="ellipse;whiteSpace=wrap;html=1;fillColor=#f8cecc;strokeColor=#b85450;" parent="1" vertex="1">
          <mxGeometry x="347.5" y="426" width="120" height="80" as="geometry" />
        </mxCell>
        <mxCell id="YD1cp8Vs7nDSuRFwtXO4-26" value="" style="endArrow=classic;html=1;rounded=0;exitX=0.531;exitY=0.817;exitDx=0;exitDy=0;exitPerimeter=0;" parent="1" source="YD1cp8Vs7nDSuRFwtXO4-24" target="YD1cp8Vs7nDSuRFwtXO4-25" edge="1">
          <mxGeometry width="50" height="50" relative="1" as="geometry">
            <mxPoint x="-177.5" y="216" as="sourcePoint" />
            <mxPoint x="-127.5" y="166" as="targetPoint" />
          </mxGeometry>
        </mxCell>
        <mxCell id="I-pay93XQwYCPUHcB1Gg-2" value="" style="edgeStyle=orthogonalEdgeStyle;rounded=0;orthogonalLoop=1;jettySize=auto;html=1;" parent="1" source="YD1cp8Vs7nDSuRFwtXO4-27" target="I-pay93XQwYCPUHcB1Gg-1" edge="1">
          <mxGeometry relative="1" as="geometry" />
        </mxCell>
        <mxCell id="YD1cp8Vs7nDSuRFwtXO4-27" value="&lt;font style=&quot;font-size: 16px;&quot;&gt;Generate Token&lt;/font&gt;" style="rounded=0;whiteSpace=wrap;html=1;" parent="1" vertex="1">
          <mxGeometry x="652.5" y="286" width="120" height="60" as="geometry" />
        </mxCell>
        <mxCell id="YD1cp8Vs7nDSuRFwtXO4-28" value="&lt;font style=&quot;font-size: 14px;&quot;&gt;Yes&lt;/font&gt;" style="endArrow=classic;html=1;rounded=0;exitX=1;exitY=0.5;exitDx=0;exitDy=0;entryX=0.5;entryY=0;entryDx=0;entryDy=0;" parent="1" source="YD1cp8Vs7nDSuRFwtXO4-22" target="YD1cp8Vs7nDSuRFwtXO4-27" edge="1">
          <mxGeometry width="50" height="50" relative="1" as="geometry">
            <mxPoint x="242.5" y="216" as="sourcePoint" />
            <mxPoint x="292.5" y="166" as="targetPoint" />
            <Array as="points">
              <mxPoint x="712.5" y="201" />
            </Array>
          </mxGeometry>
        </mxCell>
        <mxCell id="YD1cp8Vs7nDSuRFwtXO4-29" value="End" style="ellipse;whiteSpace=wrap;html=1;fillColor=#f8cecc;strokeColor=#b85450;" parent="1" vertex="1">
          <mxGeometry x="652.5" y="496" width="120" height="80" as="geometry" />
        </mxCell>
        <mxCell id="YD1cp8Vs7nDSuRFwtXO4-31" value="&lt;font style=&quot;font-size: 28px; color: rgb(0, 51, 0);&quot;&gt;Users Controller&lt;/font&gt;" style="text;html=1;align=center;verticalAlign=middle;resizable=0;points=[];autosize=1;strokeColor=none;fillColor=none;" parent="1" vertex="1">
          <mxGeometry x="731.5" y="-252" width="230" height="50" as="geometry" />
        </mxCell>
        <mxCell id="YD1cp8Vs7nDSuRFwtXO4-32" value="&lt;font style=&quot;font-size: 18px;&quot;&gt;Start&lt;/font&gt;" style="ellipse;whiteSpace=wrap;html=1;fillColor=#d5e8d4;strokeColor=#82b366;" parent="1" vertex="1">
          <mxGeometry x="700" y="860" width="120" height="80" as="geometry" />
        </mxCell>
        <mxCell id="YD1cp8Vs7nDSuRFwtXO4-33" value="&lt;font style=&quot;font-size: 28px; color: rgb(0, 51, 0);&quot;&gt;Products Controller&lt;/font&gt;" style="text;html=1;align=center;verticalAlign=middle;resizable=0;points=[];autosize=1;strokeColor=none;fillColor=none;" parent="1" vertex="1">
          <mxGeometry x="630" y="808" width="260" height="50" as="geometry" />
        </mxCell>
        <mxCell id="YD1cp8Vs7nDSuRFwtXO4-34" value="&lt;font style=&quot;font-size: 18px;&quot;&gt;GetAll&lt;/font&gt;" style="rounded=0;whiteSpace=wrap;html=1;" parent="1" vertex="1">
          <mxGeometry x="-180" y="1109" width="120" height="60" as="geometry" />
        </mxCell>
        <mxCell id="YD1cp8Vs7nDSuRFwtXO4-35" value="" style="endArrow=classic;html=1;rounded=0;exitX=0.5;exitY=1;exitDx=0;exitDy=0;entryX=0.5;entryY=0;entryDx=0;entryDy=0;" parent="1" source="YD1cp8Vs7nDSuRFwtXO4-32" target="YD1cp8Vs7nDSuRFwtXO4-34" edge="1">
          <mxGeometry width="50" height="50" relative="1" as="geometry">
            <mxPoint x="320" y="1140" as="sourcePoint" />
            <mxPoint x="370" y="1090" as="targetPoint" />
            <Array as="points">
              <mxPoint x="760" y="1070" />
              <mxPoint x="420" y="1070" />
              <mxPoint x="-120" y="1070" />
            </Array>
          </mxGeometry>
        </mxCell>
        <mxCell id="YD1cp8Vs7nDSuRFwtXO4-36" value="&lt;font style=&quot;font-size: 18px;&quot;&gt;Ok(AllProducts)&lt;/font&gt;" style="shape=callout;whiteSpace=wrap;html=1;boundedLbl=1;perimeter=calloutPerimeter;" parent="1" vertex="1">
          <mxGeometry x="-180" y="1250" width="120" height="80" as="geometry" />
        </mxCell>
        <mxCell id="YD1cp8Vs7nDSuRFwtXO4-37" value="" style="endArrow=classic;html=1;rounded=0;exitX=0.5;exitY=1;exitDx=0;exitDy=0;entryX=0.5;entryY=0;entryDx=0;entryDy=0;" parent="1" source="YD1cp8Vs7nDSuRFwtXO4-34" target="YD1cp8Vs7nDSuRFwtXO4-36" edge="1">
          <mxGeometry width="50" height="50" relative="1" as="geometry">
            <mxPoint x="320" y="1140" as="sourcePoint" />
            <mxPoint x="370" y="1090" as="targetPoint" />
          </mxGeometry>
        </mxCell>
        <mxCell id="YD1cp8Vs7nDSuRFwtXO4-38" value="End" style="ellipse;whiteSpace=wrap;html=1;fillColor=#f8cecc;strokeColor=#b85450;" parent="1" vertex="1">
          <mxGeometry x="-180" y="1380" width="120" height="80" as="geometry" />
        </mxCell>
        <mxCell id="YD1cp8Vs7nDSuRFwtXO4-39" value="" style="endArrow=classic;html=1;rounded=0;exitX=0.494;exitY=0.933;exitDx=0;exitDy=0;exitPerimeter=0;" parent="1" source="YD1cp8Vs7nDSuRFwtXO4-36" target="YD1cp8Vs7nDSuRFwtXO4-38" edge="1">
          <mxGeometry width="50" height="50" relative="1" as="geometry">
            <mxPoint x="320" y="1140" as="sourcePoint" />
            <mxPoint x="370" y="1090" as="targetPoint" />
          </mxGeometry>
        </mxCell>
        <mxCell id="YD1cp8Vs7nDSuRFwtXO4-40" value="&lt;font style=&quot;font-size: 18px;&quot;&gt;GetById&lt;/font&gt;" style="rounded=0;whiteSpace=wrap;html=1;" parent="1" vertex="1">
          <mxGeometry x="190" y="1109" width="120" height="60" as="geometry" />
        </mxCell>
        <mxCell id="YD1cp8Vs7nDSuRFwtXO4-41" value="" style="endArrow=classic;html=1;rounded=0;entryX=0.5;entryY=0;entryDx=0;entryDy=0;" parent="1" target="YD1cp8Vs7nDSuRFwtXO4-40" edge="1">
          <mxGeometry width="50" height="50" relative="1" as="geometry">
            <mxPoint x="250" y="1070" as="sourcePoint" />
            <mxPoint x="370" y="1090" as="targetPoint" />
          </mxGeometry>
        </mxCell>
        <mxCell id="YD1cp8Vs7nDSuRFwtXO4-42" value="&lt;font style=&quot;font-size: 18px;&quot;&gt;Ckeck Products exist&lt;/font&gt;" style="rhombus;whiteSpace=wrap;html=1;" parent="1" vertex="1">
          <mxGeometry x="140" y="1230" width="220" height="100" as="geometry" />
        </mxCell>
        <mxCell id="YD1cp8Vs7nDSuRFwtXO4-43" value="" style="edgeStyle=none;orthogonalLoop=1;jettySize=auto;html=1;rounded=0;entryX=0.5;entryY=0;entryDx=0;entryDy=0;" parent="1" target="YD1cp8Vs7nDSuRFwtXO4-42" edge="1">
          <mxGeometry width="80" relative="1" as="geometry">
            <mxPoint x="250" y="1170" as="sourcePoint" />
            <mxPoint x="440" y="1250" as="targetPoint" />
            <Array as="points" />
          </mxGeometry>
        </mxCell>
        <mxCell id="YD1cp8Vs7nDSuRFwtXO4-44" value="&lt;font style=&quot;font-size: 18px;&quot;&gt;Ok(Product)&lt;/font&gt;" style="shape=callout;whiteSpace=wrap;html=1;boundedLbl=1;perimeter=calloutPerimeter;" parent="1" vertex="1">
          <mxGeometry x="370" y="1380" width="120" height="80" as="geometry" />
        </mxCell>
        <mxCell id="YD1cp8Vs7nDSuRFwtXO4-45" value="&lt;font style=&quot;font-size: 18px;&quot;&gt;NotFound()&lt;/font&gt;" style="shape=callout;whiteSpace=wrap;html=1;boundedLbl=1;perimeter=calloutPerimeter;" parent="1" vertex="1">
          <mxGeometry x="40" y="1380" width="120" height="80" as="geometry" />
        </mxCell>
        <mxCell id="YD1cp8Vs7nDSuRFwtXO4-46" value="End" style="ellipse;whiteSpace=wrap;html=1;fillColor=#f8cecc;strokeColor=#b85450;" parent="1" vertex="1">
          <mxGeometry x="40" y="1520" width="120" height="80" as="geometry" />
        </mxCell>
        <mxCell id="YD1cp8Vs7nDSuRFwtXO4-47" value="&lt;font style=&quot;font-size: 18px;&quot;&gt;Yes&lt;/font&gt;" style="endArrow=classic;html=1;rounded=0;exitX=1;exitY=0.5;exitDx=0;exitDy=0;entryX=0.5;entryY=0;entryDx=0;entryDy=0;" parent="1" source="YD1cp8Vs7nDSuRFwtXO4-42" target="YD1cp8Vs7nDSuRFwtXO4-44" edge="1">
          <mxGeometry x="0.1765" width="50" height="50" relative="1" as="geometry">
            <mxPoint x="30" y="1170" as="sourcePoint" />
            <mxPoint x="80" y="1120" as="targetPoint" />
            <Array as="points">
              <mxPoint x="430" y="1280" />
            </Array>
            <mxPoint as="offset" />
          </mxGeometry>
        </mxCell>
        <mxCell id="YD1cp8Vs7nDSuRFwtXO4-48" value="&lt;font style=&quot;font-size: 18px;&quot;&gt;No&lt;/font&gt;" style="endArrow=classic;html=1;rounded=0;exitX=0;exitY=0.5;exitDx=0;exitDy=0;entryX=0.5;entryY=0;entryDx=0;entryDy=0;" parent="1" source="YD1cp8Vs7nDSuRFwtXO4-42" target="YD1cp8Vs7nDSuRFwtXO4-45" edge="1">
          <mxGeometry width="50" height="50" relative="1" as="geometry">
            <mxPoint x="30" y="1170" as="sourcePoint" />
            <mxPoint x="80" y="1120" as="targetPoint" />
            <Array as="points">
              <mxPoint x="100" y="1280" />
            </Array>
          </mxGeometry>
        </mxCell>
        <mxCell id="YD1cp8Vs7nDSuRFwtXO4-49" value="" style="endArrow=classic;html=1;rounded=0;exitX=0.486;exitY=0.875;exitDx=0;exitDy=0;exitPerimeter=0;entryX=0.5;entryY=0;entryDx=0;entryDy=0;" parent="1" source="YD1cp8Vs7nDSuRFwtXO4-45" target="YD1cp8Vs7nDSuRFwtXO4-46" edge="1">
          <mxGeometry width="50" height="50" relative="1" as="geometry">
            <mxPoint x="30" y="1170" as="sourcePoint" />
            <mxPoint x="80" y="1120" as="targetPoint" />
          </mxGeometry>
        </mxCell>
        <mxCell id="YD1cp8Vs7nDSuRFwtXO4-50" value="End" style="ellipse;whiteSpace=wrap;html=1;fillColor=#f8cecc;strokeColor=#b85450;" parent="1" vertex="1">
          <mxGeometry x="370" y="1520" width="120" height="80" as="geometry" />
        </mxCell>
        <mxCell id="YD1cp8Vs7nDSuRFwtXO4-51" value="" style="endArrow=classic;html=1;rounded=0;exitX=0.536;exitY=0.844;exitDx=0;exitDy=0;exitPerimeter=0;entryX=0.5;entryY=0;entryDx=0;entryDy=0;" parent="1" source="YD1cp8Vs7nDSuRFwtXO4-44" target="YD1cp8Vs7nDSuRFwtXO4-50" edge="1">
          <mxGeometry width="50" height="50" relative="1" as="geometry">
            <mxPoint x="30" y="1170" as="sourcePoint" />
            <mxPoint x="80" y="1120" as="targetPoint" />
          </mxGeometry>
        </mxCell>
        <mxCell id="YD1cp8Vs7nDSuRFwtXO4-96" value="" style="endArrow=classic;html=1;rounded=0;entryX=0.5;entryY=0;entryDx=0;entryDy=0;" parent="1" target="YD1cp8Vs7nDSuRFwtXO4-114" edge="1">
          <mxGeometry width="50" height="50" relative="1" as="geometry">
            <mxPoint x="760" y="1070" as="sourcePoint" />
            <mxPoint x="2150" y="1160" as="targetPoint" />
            <Array as="points">
              <mxPoint x="1485" y="1070" />
            </Array>
          </mxGeometry>
        </mxCell>
        <mxCell id="YD1cp8Vs7nDSuRFwtXO4-114" value="&lt;font style=&quot;font-size: 18px;&quot;&gt;Authorize&lt;br&gt;Admin&lt;/font&gt;" style="rhombus;whiteSpace=wrap;html=1;" parent="1" vertex="1">
          <mxGeometry x="1410" y="1120" width="150" height="90" as="geometry" />
        </mxCell>
        <mxCell id="YD1cp8Vs7nDSuRFwtXO4-115" value="&lt;font style=&quot;font-size: 18px;&quot;&gt;No&lt;/font&gt;" style="endArrow=classic;html=1;rounded=0;exitX=0;exitY=0.5;exitDx=0;exitDy=0;entryX=0.5;entryY=0;entryDx=0;entryDy=0;" parent="1" source="YD1cp8Vs7nDSuRFwtXO4-114" target="YD1cp8Vs7nDSuRFwtXO4-116" edge="1">
          <mxGeometry width="50" height="50" relative="1" as="geometry">
            <mxPoint x="1210" y="1360" as="sourcePoint" />
            <mxPoint x="1260" y="1310" as="targetPoint" />
            <Array as="points">
              <mxPoint x="1350" y="1165" />
            </Array>
          </mxGeometry>
        </mxCell>
        <mxCell id="YD1cp8Vs7nDSuRFwtXO4-116" value="Forbidden" style="shape=document;whiteSpace=wrap;html=1;boundedLbl=1;" parent="1" vertex="1">
          <mxGeometry x="1290" y="1240" width="120" height="80" as="geometry" />
        </mxCell>
        <mxCell id="YD1cp8Vs7nDSuRFwtXO4-117" value="End" style="ellipse;whiteSpace=wrap;html=1;fillColor=#f8cecc;strokeColor=#b85450;" parent="1" vertex="1">
          <mxGeometry x="1290" y="1370" width="120" height="80" as="geometry" />
        </mxCell>
        <mxCell id="YD1cp8Vs7nDSuRFwtXO4-118" value="" style="endArrow=classic;html=1;rounded=0;exitX=0.517;exitY=0.887;exitDx=0;exitDy=0;exitPerimeter=0;entryX=0.5;entryY=0;entryDx=0;entryDy=0;" parent="1" source="YD1cp8Vs7nDSuRFwtXO4-116" target="YD1cp8Vs7nDSuRFwtXO4-117" edge="1">
          <mxGeometry width="50" height="50" relative="1" as="geometry">
            <mxPoint x="1130" y="1440" as="sourcePoint" />
            <mxPoint x="1180" y="1390" as="targetPoint" />
          </mxGeometry>
        </mxCell>
        <mxCell id="YD1cp8Vs7nDSuRFwtXO4-119" value="&lt;font style=&quot;font-size: 18px;&quot;&gt;Yes&lt;/font&gt;" style="endArrow=classic;html=1;rounded=0;exitX=1;exitY=0.5;exitDx=0;exitDy=0;entryX=0.5;entryY=0;entryDx=0;entryDy=0;" parent="1" source="YD1cp8Vs7nDSuRFwtXO4-114" target="YD1cp8Vs7nDSuRFwtXO4-124" edge="1">
          <mxGeometry x="0.3143" width="50" height="50" relative="1" as="geometry">
            <mxPoint x="1540" y="1330" as="sourcePoint" />
            <mxPoint x="1470" y="1250" as="targetPoint" />
            <Array as="points">
              <mxPoint x="1660" y="1165" />
            </Array>
            <mxPoint as="offset" />
          </mxGeometry>
        </mxCell>
        <mxCell id="YD1cp8Vs7nDSuRFwtXO4-124" value="&lt;font style=&quot;font-size: 18px;&quot;&gt;Delete&lt;/font&gt;" style="rounded=0;whiteSpace=wrap;html=1;" parent="1" vertex="1">
          <mxGeometry x="1600" y="1240" width="120" height="60" as="geometry" />
        </mxCell>
        <mxCell id="YD1cp8Vs7nDSuRFwtXO4-125" value="&lt;font style=&quot;font-size: 18px;&quot;&gt;Check Product exists&lt;/font&gt;" style="rhombus;whiteSpace=wrap;html=1;" parent="1" vertex="1">
          <mxGeometry x="1565" y="1380" width="190" height="80" as="geometry" />
        </mxCell>
        <mxCell id="YD1cp8Vs7nDSuRFwtXO4-126" value="&lt;font style=&quot;font-size: 18px;&quot;&gt;NotFound()&lt;/font&gt;" style="shape=callout;whiteSpace=wrap;html=1;boundedLbl=1;perimeter=calloutPerimeter;" parent="1" vertex="1">
          <mxGeometry x="1470" y="1520" width="120" height="80" as="geometry" />
        </mxCell>
        <mxCell id="YD1cp8Vs7nDSuRFwtXO4-127" value="End" style="ellipse;whiteSpace=wrap;html=1;fillColor=#f8cecc;strokeColor=#b85450;" parent="1" vertex="1">
          <mxGeometry x="1470" y="1660" width="120" height="80" as="geometry" />
        </mxCell>
        <mxCell id="YD1cp8Vs7nDSuRFwtXO4-128" value="" style="endArrow=classic;html=1;rounded=0;entryX=0.5;entryY=0;entryDx=0;entryDy=0;exitX=0.5;exitY=1;exitDx=0;exitDy=0;" parent="1" source="YD1cp8Vs7nDSuRFwtXO4-124" target="YD1cp8Vs7nDSuRFwtXO4-125" edge="1">
          <mxGeometry width="50" height="50" relative="1" as="geometry">
            <mxPoint x="1150" y="1520" as="sourcePoint" />
            <mxPoint x="1200" y="1470" as="targetPoint" />
          </mxGeometry>
        </mxCell>
        <mxCell id="YD1cp8Vs7nDSuRFwtXO4-129" value="" style="endArrow=classic;html=1;rounded=0;exitX=0;exitY=0.5;exitDx=0;exitDy=0;entryX=0.5;entryY=0;entryDx=0;entryDy=0;" parent="1" source="YD1cp8Vs7nDSuRFwtXO4-125" target="YD1cp8Vs7nDSuRFwtXO4-126" edge="1">
          <mxGeometry width="50" height="50" relative="1" as="geometry">
            <mxPoint x="1150" y="1520" as="sourcePoint" />
            <mxPoint x="1200" y="1470" as="targetPoint" />
            <Array as="points">
              <mxPoint x="1530" y="1420" />
            </Array>
          </mxGeometry>
        </mxCell>
        <mxCell id="YD1cp8Vs7nDSuRFwtXO4-130" value="&lt;font style=&quot;font-size: 18px;&quot;&gt;No&lt;/font&gt;" style="edgeLabel;html=1;align=center;verticalAlign=middle;resizable=0;points=[];" parent="YD1cp8Vs7nDSuRFwtXO4-129" vertex="1" connectable="0">
          <mxGeometry x="0.0724" y="-4" relative="1" as="geometry">
            <mxPoint as="offset" />
          </mxGeometry>
        </mxCell>
        <mxCell id="YD1cp8Vs7nDSuRFwtXO4-131" value="" style="endArrow=classic;html=1;rounded=0;exitX=0.535;exitY=0.93;exitDx=0;exitDy=0;exitPerimeter=0;entryX=0.5;entryY=0;entryDx=0;entryDy=0;" parent="1" source="YD1cp8Vs7nDSuRFwtXO4-126" target="YD1cp8Vs7nDSuRFwtXO4-127" edge="1">
          <mxGeometry width="50" height="50" relative="1" as="geometry">
            <mxPoint x="1430" y="1630" as="sourcePoint" />
            <mxPoint x="1480" y="1580" as="targetPoint" />
          </mxGeometry>
        </mxCell>
        <mxCell id="YD1cp8Vs7nDSuRFwtXO4-132" value="&lt;font style=&quot;font-size: 19px;&quot;&gt;NoContent()&lt;/font&gt;" style="shape=callout;whiteSpace=wrap;html=1;boundedLbl=1;perimeter=calloutPerimeter;" parent="1" vertex="1">
          <mxGeometry x="1770" y="1510" width="120" height="80" as="geometry" />
        </mxCell>
        <mxCell id="YD1cp8Vs7nDSuRFwtXO4-133" value="&lt;font style=&quot;font-size: 18px;&quot;&gt;Yes&lt;/font&gt;" style="endArrow=classic;html=1;rounded=0;exitX=1;exitY=0.5;exitDx=0;exitDy=0;entryX=0.5;entryY=0;entryDx=0;entryDy=0;" parent="1" source="YD1cp8Vs7nDSuRFwtXO4-125" target="YD1cp8Vs7nDSuRFwtXO4-132" edge="1">
          <mxGeometry x="0.2727" width="50" height="50" relative="1" as="geometry">
            <mxPoint x="1430" y="1640" as="sourcePoint" />
            <mxPoint x="1480" y="1590" as="targetPoint" />
            <Array as="points">
              <mxPoint x="1830" y="1420" />
            </Array>
            <mxPoint y="1" as="offset" />
          </mxGeometry>
        </mxCell>
        <mxCell id="YD1cp8Vs7nDSuRFwtXO4-134" value="End" style="ellipse;whiteSpace=wrap;html=1;fillColor=#f8cecc;strokeColor=#b85450;" parent="1" vertex="1">
          <mxGeometry x="1770" y="1650" width="120" height="80" as="geometry" />
        </mxCell>
        <mxCell id="YD1cp8Vs7nDSuRFwtXO4-135" value="" style="endArrow=classic;html=1;rounded=0;exitX=0.502;exitY=0.875;exitDx=0;exitDy=0;exitPerimeter=0;entryX=0.5;entryY=0;entryDx=0;entryDy=0;" parent="1" source="YD1cp8Vs7nDSuRFwtXO4-132" target="YD1cp8Vs7nDSuRFwtXO4-134" edge="1">
          <mxGeometry width="50" height="50" relative="1" as="geometry">
            <mxPoint x="1430" y="1640" as="sourcePoint" />
            <mxPoint x="1480" y="1590" as="targetPoint" />
          </mxGeometry>
        </mxCell>
        <mxCell id="I-pay93XQwYCPUHcB1Gg-35" style="edgeStyle=orthogonalEdgeStyle;rounded=0;orthogonalLoop=1;jettySize=auto;html=1;exitX=0.5;exitY=1;exitDx=0;exitDy=0;entryX=0.5;entryY=0;entryDx=0;entryDy=0;" parent="1" target="I-pay93XQwYCPUHcB1Gg-24" edge="1">
          <mxGeometry relative="1" as="geometry">
            <mxPoint x="2105" y="1150.0000000000002" as="targetPoint" />
            <mxPoint x="760" y="1070.0000000000002" as="sourcePoint" />
          </mxGeometry>
        </mxCell>
        <mxCell id="YD1cp8Vs7nDSuRFwtXO4-140" value="&lt;font style=&quot;font-size: 20px;&quot;&gt;Authorize&lt;/font&gt;" style="rounded=1;whiteSpace=wrap;html=1;" parent="1" vertex="1">
          <mxGeometry x="700" y="980" width="120" height="60" as="geometry" />
        </mxCell>
        <mxCell id="YD1cp8Vs7nDSuRFwtXO4-142" value="&lt;font style=&quot;font-size: 28px; color: rgb(0, 51, 0);&quot;&gt;Orders Controller&lt;/font&gt;" style="text;html=1;align=center;verticalAlign=middle;resizable=0;points=[];autosize=1;strokeColor=none;fillColor=none;" parent="1" vertex="1">
          <mxGeometry x="412.5" y="1922" width="240" height="50" as="geometry" />
        </mxCell>
        <mxCell id="YD1cp8Vs7nDSuRFwtXO4-143" value="&lt;font style=&quot;font-size: 18px;&quot;&gt;Start&lt;/font&gt;" style="ellipse;whiteSpace=wrap;html=1;fillColor=#d5e8d4;strokeColor=#82b366;" parent="1" vertex="1">
          <mxGeometry x="462.5" y="2005" width="120" height="80" as="geometry" />
        </mxCell>
        <mxCell id="YD1cp8Vs7nDSuRFwtXO4-144" value="&lt;font style=&quot;font-size: 20px;&quot;&gt;Authorize&lt;/font&gt;" style="rounded=1;whiteSpace=wrap;html=1;" parent="1" vertex="1">
          <mxGeometry x="462.5" y="2150" width="120" height="60" as="geometry" />
        </mxCell>
        <mxCell id="YD1cp8Vs7nDSuRFwtXO4-145" value="" style="endArrow=classic;html=1;rounded=0;exitX=0.5;exitY=1;exitDx=0;exitDy=0;entryX=0.5;entryY=0;entryDx=0;entryDy=0;" parent="1" source="YD1cp8Vs7nDSuRFwtXO4-143" target="YD1cp8Vs7nDSuRFwtXO4-144" edge="1">
          <mxGeometry width="50" height="50" relative="1" as="geometry">
            <mxPoint x="32.5" y="2210" as="sourcePoint" />
            <mxPoint x="82.5" y="2160" as="targetPoint" />
          </mxGeometry>
        </mxCell>
        <mxCell id="YD1cp8Vs7nDSuRFwtXO4-146" value="&lt;font style=&quot;font-size: 18px;&quot;&gt;GetAll&lt;/font&gt;" style="rounded=0;whiteSpace=wrap;html=1;" parent="1" vertex="1">
          <mxGeometry x="-467.5" y="2300" width="120" height="60" as="geometry" />
        </mxCell>
        <mxCell id="YD1cp8Vs7nDSuRFwtXO4-148" value="" style="endArrow=classic;html=1;rounded=0;exitX=0.5;exitY=1;exitDx=0;exitDy=0;entryX=0.5;entryY=0;entryDx=0;entryDy=0;" parent="1" source="YD1cp8Vs7nDSuRFwtXO4-144" target="YD1cp8Vs7nDSuRFwtXO4-146" edge="1">
          <mxGeometry width="50" height="50" relative="1" as="geometry">
            <mxPoint x="32.5" y="2210" as="sourcePoint" />
            <mxPoint x="82.5" y="2160" as="targetPoint" />
            <Array as="points">
              <mxPoint x="522.5" y="2260" />
              <mxPoint x="262.5" y="2260" />
              <mxPoint x="-407.5" y="2260" />
            </Array>
          </mxGeometry>
        </mxCell>
        <mxCell id="YD1cp8Vs7nDSuRFwtXO4-149" style="edgeStyle=orthogonalEdgeStyle;rounded=0;orthogonalLoop=1;jettySize=auto;html=1;exitX=0.5;exitY=1;exitDx=0;exitDy=0;entryX=0.25;entryY=1;entryDx=0;entryDy=0;" parent="1" source="YD1cp8Vs7nDSuRFwtXO4-146" target="YD1cp8Vs7nDSuRFwtXO4-146" edge="1">
          <mxGeometry relative="1" as="geometry" />
        </mxCell>
        <mxCell id="YD1cp8Vs7nDSuRFwtXO4-151" value="&lt;font style=&quot;font-size: 18px;&quot;&gt;Ok(AllProducts)&lt;/font&gt;" style="shape=callout;whiteSpace=wrap;html=1;boundedLbl=1;perimeter=calloutPerimeter;" parent="1" vertex="1">
          <mxGeometry x="-472.5" y="2438" width="130" height="92" as="geometry" />
        </mxCell>
        <mxCell id="YD1cp8Vs7nDSuRFwtXO4-152" value="" style="endArrow=classic;html=1;rounded=0;entryX=0.5;entryY=0;entryDx=0;entryDy=0;exitX=0.5;exitY=1;exitDx=0;exitDy=0;" parent="1" source="YD1cp8Vs7nDSuRFwtXO4-146" target="YD1cp8Vs7nDSuRFwtXO4-151" edge="1">
          <mxGeometry width="50" height="50" relative="1" as="geometry">
            <mxPoint x="-327.5" y="2360" as="sourcePoint" />
            <mxPoint x="132.5" y="2250" as="targetPoint" />
          </mxGeometry>
        </mxCell>
        <mxCell id="YD1cp8Vs7nDSuRFwtXO4-153" value="End" style="ellipse;whiteSpace=wrap;html=1;fillColor=#f8cecc;strokeColor=#b85450;" parent="1" vertex="1">
          <mxGeometry x="-462.5" y="2600" width="120" height="80" as="geometry" />
        </mxCell>
        <mxCell id="YD1cp8Vs7nDSuRFwtXO4-154" value="" style="endArrow=classic;html=1;rounded=0;exitX=0.525;exitY=0.846;exitDx=0;exitDy=0;exitPerimeter=0;entryX=0.5;entryY=0.002;entryDx=0;entryDy=0;entryPerimeter=0;" parent="1" source="YD1cp8Vs7nDSuRFwtXO4-151" target="YD1cp8Vs7nDSuRFwtXO4-153" edge="1">
          <mxGeometry width="50" height="50" relative="1" as="geometry">
            <mxPoint x="-67.5" y="2320" as="sourcePoint" />
            <mxPoint x="-17.5" y="2270" as="targetPoint" />
          </mxGeometry>
        </mxCell>
        <mxCell id="YD1cp8Vs7nDSuRFwtXO4-155" value="&lt;font style=&quot;font-size: 18px;&quot;&gt;GetById&lt;/font&gt;" style="rounded=0;whiteSpace=wrap;html=1;" parent="1" vertex="1">
          <mxGeometry x="-117.5" y="2300" width="120" height="60" as="geometry" />
        </mxCell>
        <mxCell id="YD1cp8Vs7nDSuRFwtXO4-156" value="" style="endArrow=classic;html=1;rounded=0;entryX=0.5;entryY=0;entryDx=0;entryDy=0;" parent="1" target="YD1cp8Vs7nDSuRFwtXO4-155" edge="1">
          <mxGeometry width="50" height="50" relative="1" as="geometry">
            <mxPoint x="-57.5" y="2260" as="sourcePoint" />
            <mxPoint x="82.5" y="2250" as="targetPoint" />
          </mxGeometry>
        </mxCell>
        <mxCell id="YD1cp8Vs7nDSuRFwtXO4-157" value="&lt;font style=&quot;font-size: 18px;&quot;&gt;Ckeck Order exist&lt;/font&gt;" style="rhombus;whiteSpace=wrap;html=1;" parent="1" vertex="1">
          <mxGeometry x="-167.5" y="2430" width="220" height="100" as="geometry" />
        </mxCell>
        <mxCell id="YD1cp8Vs7nDSuRFwtXO4-158" value="" style="endArrow=classic;html=1;rounded=0;exitX=0.5;exitY=1;exitDx=0;exitDy=0;entryX=0.5;entryY=0;entryDx=0;entryDy=0;" parent="1" source="YD1cp8Vs7nDSuRFwtXO4-155" target="YD1cp8Vs7nDSuRFwtXO4-157" edge="1">
          <mxGeometry width="50" height="50" relative="1" as="geometry">
            <mxPoint x="-87.5" y="2510" as="sourcePoint" />
            <mxPoint x="-37.5" y="2460" as="targetPoint" />
          </mxGeometry>
        </mxCell>
        <mxCell id="YD1cp8Vs7nDSuRFwtXO4-160" value="&lt;font style=&quot;font-size: 18px;&quot;&gt;NotFound()&lt;/font&gt;" style="shape=callout;whiteSpace=wrap;html=1;boundedLbl=1;perimeter=calloutPerimeter;" parent="1" vertex="1">
          <mxGeometry x="-257.5" y="2580" width="120" height="80" as="geometry" />
        </mxCell>
        <mxCell id="YD1cp8Vs7nDSuRFwtXO4-161" value="&lt;font style=&quot;font-size: 18px;&quot;&gt;No&lt;/font&gt;" style="endArrow=classic;html=1;rounded=0;exitX=0;exitY=0.5;exitDx=0;exitDy=0;" parent="1" source="YD1cp8Vs7nDSuRFwtXO4-157" target="YD1cp8Vs7nDSuRFwtXO4-160" edge="1">
          <mxGeometry width="50" height="50" relative="1" as="geometry">
            <mxPoint x="-87.5" y="2470" as="sourcePoint" />
            <mxPoint x="-37.5" y="2420" as="targetPoint" />
            <Array as="points">
              <mxPoint x="-197.5" y="2480" />
            </Array>
          </mxGeometry>
        </mxCell>
        <mxCell id="YD1cp8Vs7nDSuRFwtXO4-162" value="End" style="ellipse;whiteSpace=wrap;html=1;fillColor=#f8cecc;strokeColor=#b85450;" parent="1" vertex="1">
          <mxGeometry x="-257.5" y="2720" width="120" height="80" as="geometry" />
        </mxCell>
        <mxCell id="YD1cp8Vs7nDSuRFwtXO4-163" value="" style="endArrow=classic;html=1;rounded=0;exitX=0.503;exitY=0.833;exitDx=0;exitDy=0;exitPerimeter=0;entryX=0.5;entryY=0;entryDx=0;entryDy=0;" parent="1" source="YD1cp8Vs7nDSuRFwtXO4-160" target="YD1cp8Vs7nDSuRFwtXO4-162" edge="1">
          <mxGeometry width="50" height="50" relative="1" as="geometry">
            <mxPoint x="-87.5" y="2460" as="sourcePoint" />
            <mxPoint x="-37.5" y="2410" as="targetPoint" />
          </mxGeometry>
        </mxCell>
        <mxCell id="YD1cp8Vs7nDSuRFwtXO4-164" value="&lt;font style=&quot;font-size: 18px;&quot;&gt;Ok(Order)&lt;/font&gt;" style="shape=callout;whiteSpace=wrap;html=1;boundedLbl=1;perimeter=calloutPerimeter;" parent="1" vertex="1">
          <mxGeometry x="32.5" y="2580" width="120" height="80" as="geometry" />
        </mxCell>
        <mxCell id="YD1cp8Vs7nDSuRFwtXO4-165" value="&lt;font style=&quot;font-size: 18px;&quot;&gt;Yes&lt;/font&gt;" style="endArrow=classic;html=1;rounded=0;exitX=1;exitY=0.5;exitDx=0;exitDy=0;entryX=0.5;entryY=0;entryDx=0;entryDy=0;" parent="1" source="YD1cp8Vs7nDSuRFwtXO4-157" target="YD1cp8Vs7nDSuRFwtXO4-164" edge="1">
          <mxGeometry width="50" height="50" relative="1" as="geometry">
            <mxPoint x="-37.5" y="2430" as="sourcePoint" />
            <mxPoint x="92.5" y="2570" as="targetPoint" />
            <Array as="points">
              <mxPoint x="92.5" y="2480" />
            </Array>
          </mxGeometry>
        </mxCell>
        <mxCell id="YD1cp8Vs7nDSuRFwtXO4-166" value="End" style="ellipse;whiteSpace=wrap;html=1;fillColor=#f8cecc;strokeColor=#b85450;" parent="1" vertex="1">
          <mxGeometry x="32.5" y="2720" width="120" height="80" as="geometry" />
        </mxCell>
        <mxCell id="YD1cp8Vs7nDSuRFwtXO4-167" value="" style="endArrow=classic;html=1;rounded=0;exitX=0.525;exitY=0.892;exitDx=0;exitDy=0;exitPerimeter=0;entryX=0.5;entryY=0;entryDx=0;entryDy=0;" parent="1" source="YD1cp8Vs7nDSuRFwtXO4-164" target="YD1cp8Vs7nDSuRFwtXO4-166" edge="1">
          <mxGeometry width="50" height="50" relative="1" as="geometry">
            <mxPoint x="-37.5" y="2700" as="sourcePoint" />
            <mxPoint x="12.5" y="2650" as="targetPoint" />
          </mxGeometry>
        </mxCell>
        <mxCell id="YD1cp8Vs7nDSuRFwtXO4-168" value="&lt;font style=&quot;font-size: 18px;&quot;&gt;GetOrderStatus&lt;/font&gt;" style="rounded=0;whiteSpace=wrap;html=1;" parent="1" vertex="1">
          <mxGeometry x="462.5" y="2320" width="120" height="60" as="geometry" />
        </mxCell>
        <mxCell id="YD1cp8Vs7nDSuRFwtXO4-169" value="" style="endArrow=classic;html=1;rounded=0;entryX=0.5;entryY=0;entryDx=0;entryDy=0;" parent="1" target="YD1cp8Vs7nDSuRFwtXO4-168" edge="1">
          <mxGeometry width="50" height="50" relative="1" as="geometry">
            <mxPoint x="522.5" y="2260" as="sourcePoint" />
            <mxPoint x="282.5" y="2460" as="targetPoint" />
          </mxGeometry>
        </mxCell>
        <mxCell id="YD1cp8Vs7nDSuRFwtXO4-170" value="&lt;font style=&quot;font-size: 18px;&quot;&gt;Ckeck Order exist&lt;/font&gt;" style="rhombus;whiteSpace=wrap;html=1;" parent="1" vertex="1">
          <mxGeometry x="412.5" y="2430" width="220" height="100" as="geometry" />
        </mxCell>
        <mxCell id="YD1cp8Vs7nDSuRFwtXO4-171" value="" style="endArrow=classic;html=1;rounded=0;exitX=0.5;exitY=1;exitDx=0;exitDy=0;entryX=0.5;entryY=0;entryDx=0;entryDy=0;" parent="1" source="YD1cp8Vs7nDSuRFwtXO4-168" target="YD1cp8Vs7nDSuRFwtXO4-170" edge="1">
          <mxGeometry width="50" height="50" relative="1" as="geometry">
            <mxPoint x="232.5" y="2510" as="sourcePoint" />
            <mxPoint x="282.5" y="2460" as="targetPoint" />
            <Array as="points">
              <mxPoint x="522.5" y="2430" />
            </Array>
          </mxGeometry>
        </mxCell>
        <mxCell id="YD1cp8Vs7nDSuRFwtXO4-174" value="&lt;font style=&quot;font-size: 18px;&quot;&gt;NotFound()&lt;/font&gt;" style="shape=callout;whiteSpace=wrap;html=1;boundedLbl=1;perimeter=calloutPerimeter;" parent="1" vertex="1">
          <mxGeometry x="302.5" y="2580" width="120" height="80" as="geometry" />
        </mxCell>
        <mxCell id="YD1cp8Vs7nDSuRFwtXO4-175" value="&lt;font style=&quot;font-size: 18px;&quot;&gt;No&lt;/font&gt;" style="endArrow=classic;html=1;rounded=0;exitX=0;exitY=0.5;exitDx=0;exitDy=0;entryX=0.5;entryY=0;entryDx=0;entryDy=0;" parent="1" source="YD1cp8Vs7nDSuRFwtXO4-170" target="YD1cp8Vs7nDSuRFwtXO4-174" edge="1">
          <mxGeometry width="50" height="50" relative="1" as="geometry">
            <mxPoint x="232.5" y="2570" as="sourcePoint" />
            <mxPoint x="282.5" y="2520" as="targetPoint" />
            <Array as="points">
              <mxPoint x="362.5" y="2480" />
            </Array>
          </mxGeometry>
        </mxCell>
        <mxCell id="YD1cp8Vs7nDSuRFwtXO4-177" value="End" style="ellipse;whiteSpace=wrap;html=1;fillColor=#f8cecc;strokeColor=#b85450;" parent="1" vertex="1">
          <mxGeometry x="302.5" y="2710" width="120" height="80" as="geometry" />
        </mxCell>
        <mxCell id="YD1cp8Vs7nDSuRFwtXO4-178" value="" style="endArrow=classic;html=1;rounded=0;exitX=0.503;exitY=0.845;exitDx=0;exitDy=0;exitPerimeter=0;entryX=0.5;entryY=0;entryDx=0;entryDy=0;" parent="1" source="YD1cp8Vs7nDSuRFwtXO4-174" target="YD1cp8Vs7nDSuRFwtXO4-177" edge="1">
          <mxGeometry width="50" height="50" relative="1" as="geometry">
            <mxPoint x="232.5" y="2560" as="sourcePoint" />
            <mxPoint x="282.5" y="2510" as="targetPoint" />
          </mxGeometry>
        </mxCell>
        <mxCell id="YD1cp8Vs7nDSuRFwtXO4-179" value="&lt;font style=&quot;font-size: 18px;&quot;&gt;Ok(Order.Status)&lt;/font&gt;" style="shape=callout;whiteSpace=wrap;html=1;boundedLbl=1;perimeter=calloutPerimeter;" parent="1" vertex="1">
          <mxGeometry x="632.5" y="2580" width="140" height="80" as="geometry" />
        </mxCell>
        <mxCell id="YD1cp8Vs7nDSuRFwtXO4-180" value="End" style="ellipse;whiteSpace=wrap;html=1;fillColor=#f8cecc;strokeColor=#b85450;" parent="1" vertex="1">
          <mxGeometry x="642.5" y="2700" width="120" height="80" as="geometry" />
        </mxCell>
        <mxCell id="YD1cp8Vs7nDSuRFwtXO4-181" value="&lt;font style=&quot;font-size: 18px;&quot;&gt;Yes&lt;/font&gt;" style="endArrow=classic;html=1;rounded=0;exitX=1;exitY=0.5;exitDx=0;exitDy=0;entryX=0.5;entryY=0;entryDx=0;entryDy=0;" parent="1" source="YD1cp8Vs7nDSuRFwtXO4-170" target="YD1cp8Vs7nDSuRFwtXO4-179" edge="1">
          <mxGeometry width="50" height="50" relative="1" as="geometry">
            <mxPoint x="372.5" y="2560" as="sourcePoint" />
            <mxPoint x="422.5" y="2510" as="targetPoint" />
            <Array as="points">
              <mxPoint x="702.5" y="2480" />
            </Array>
          </mxGeometry>
        </mxCell>
        <mxCell id="YD1cp8Vs7nDSuRFwtXO4-183" value="" style="endArrow=classic;html=1;rounded=0;exitX=0.525;exitY=0.821;exitDx=0;exitDy=0;exitPerimeter=0;entryX=0.5;entryY=0;entryDx=0;entryDy=0;" parent="1" source="YD1cp8Vs7nDSuRFwtXO4-179" target="YD1cp8Vs7nDSuRFwtXO4-180" edge="1">
          <mxGeometry width="50" height="50" relative="1" as="geometry">
            <mxPoint x="372.5" y="2560" as="sourcePoint" />
            <mxPoint x="422.5" y="2510" as="targetPoint" />
          </mxGeometry>
        </mxCell>
        <mxCell id="YD1cp8Vs7nDSuRFwtXO4-185" value="&lt;font style=&quot;font-size: 18px;&quot;&gt;GetCustomerOrders&lt;/font&gt;" style="rounded=0;whiteSpace=wrap;html=1;" parent="1" vertex="1">
          <mxGeometry x="972.5" y="2310" width="200" height="60" as="geometry" />
        </mxCell>
        <mxCell id="YD1cp8Vs7nDSuRFwtXO4-186" value="" style="endArrow=classic;html=1;rounded=0;exitX=0.5;exitY=1;exitDx=0;exitDy=0;entryX=0.5;entryY=0;entryDx=0;entryDy=0;" parent="1" source="YD1cp8Vs7nDSuRFwtXO4-144" target="YD1cp8Vs7nDSuRFwtXO4-216" edge="1">
          <mxGeometry width="50" height="50" relative="1" as="geometry">
            <mxPoint x="782.5" y="2560" as="sourcePoint" />
            <mxPoint x="2062.5" y="2300" as="targetPoint" />
            <Array as="points">
              <mxPoint x="522.5" y="2260" />
              <mxPoint x="2137.5" y="2260" />
            </Array>
          </mxGeometry>
        </mxCell>
        <mxCell id="YD1cp8Vs7nDSuRFwtXO4-187" value="&lt;font style=&quot;font-size: 18px;&quot;&gt;Ckeck Orders exist by customerId&lt;/font&gt;" style="rhombus;whiteSpace=wrap;html=1;" parent="1" vertex="1">
          <mxGeometry x="962.5" y="2430" width="220" height="100" as="geometry" />
        </mxCell>
        <mxCell id="YD1cp8Vs7nDSuRFwtXO4-188" value="" style="endArrow=classic;html=1;rounded=0;exitX=0.5;exitY=1;exitDx=0;exitDy=0;entryX=0.5;entryY=0;entryDx=0;entryDy=0;" parent="1" source="YD1cp8Vs7nDSuRFwtXO4-185" target="YD1cp8Vs7nDSuRFwtXO4-187" edge="1">
          <mxGeometry width="50" height="50" relative="1" as="geometry">
            <mxPoint x="662.5" y="2540" as="sourcePoint" />
            <mxPoint x="712.5" y="2490" as="targetPoint" />
          </mxGeometry>
        </mxCell>
        <mxCell id="YD1cp8Vs7nDSuRFwtXO4-189" value="&lt;font style=&quot;font-size: 18px;&quot;&gt;NotFound()&lt;/font&gt;" style="shape=callout;whiteSpace=wrap;html=1;boundedLbl=1;perimeter=calloutPerimeter;" parent="1" vertex="1">
          <mxGeometry x="892.5" y="2580" width="120" height="80" as="geometry" />
        </mxCell>
        <mxCell id="YD1cp8Vs7nDSuRFwtXO4-190" value="&lt;font style=&quot;font-size: 18px;&quot;&gt;No&lt;/font&gt;" style="endArrow=classic;html=1;rounded=0;exitX=0;exitY=0.5;exitDx=0;exitDy=0;entryX=0.433;entryY=-0.014;entryDx=0;entryDy=0;entryPerimeter=0;" parent="1" source="YD1cp8Vs7nDSuRFwtXO4-187" target="YD1cp8Vs7nDSuRFwtXO4-189" edge="1">
          <mxGeometry width="50" height="50" relative="1" as="geometry">
            <mxPoint x="662.5" y="2540" as="sourcePoint" />
            <mxPoint x="712.5" y="2490" as="targetPoint" />
            <Array as="points">
              <mxPoint x="944.5" y="2480" />
            </Array>
          </mxGeometry>
        </mxCell>
        <mxCell id="YD1cp8Vs7nDSuRFwtXO4-191" value="End" style="ellipse;whiteSpace=wrap;html=1;fillColor=#f8cecc;strokeColor=#b85450;" parent="1" vertex="1">
          <mxGeometry x="892.5" y="2710" width="120" height="80" as="geometry" />
        </mxCell>
        <mxCell id="YD1cp8Vs7nDSuRFwtXO4-192" value="" style="endArrow=classic;html=1;rounded=0;exitX=0.526;exitY=0.886;exitDx=0;exitDy=0;exitPerimeter=0;entryX=0.5;entryY=0;entryDx=0;entryDy=0;" parent="1" source="YD1cp8Vs7nDSuRFwtXO4-189" target="YD1cp8Vs7nDSuRFwtXO4-191" edge="1">
          <mxGeometry width="50" height="50" relative="1" as="geometry">
            <mxPoint x="712.5" y="2570" as="sourcePoint" />
            <mxPoint x="762.5" y="2520" as="targetPoint" />
            <Array as="points" />
          </mxGeometry>
        </mxCell>
        <mxCell id="YD1cp8Vs7nDSuRFwtXO4-194" value="&lt;font style=&quot;font-size: 18px;&quot;&gt;Ok(CustomerOrders)&lt;/font&gt;" style="shape=callout;whiteSpace=wrap;html=1;boundedLbl=1;perimeter=calloutPerimeter;" parent="1" vertex="1">
          <mxGeometry x="1122.5" y="2580" width="170" height="100" as="geometry" />
        </mxCell>
        <mxCell id="YD1cp8Vs7nDSuRFwtXO4-195" value="&lt;font style=&quot;font-size: 18px;&quot;&gt;Yes&lt;/font&gt;" style="endArrow=classic;html=1;rounded=0;exitX=1;exitY=0.5;exitDx=0;exitDy=0;entryX=0.5;entryY=0;entryDx=0;entryDy=0;" parent="1" source="YD1cp8Vs7nDSuRFwtXO4-187" target="YD1cp8Vs7nDSuRFwtXO4-194" edge="1">
          <mxGeometry x="-0.12" width="50" height="50" relative="1" as="geometry">
            <mxPoint x="932.5" y="2660" as="sourcePoint" />
            <mxPoint x="982.5" y="2610" as="targetPoint" />
            <Array as="points">
              <mxPoint x="1207.5" y="2480" />
            </Array>
            <mxPoint as="offset" />
          </mxGeometry>
        </mxCell>
        <mxCell id="YD1cp8Vs7nDSuRFwtXO4-196" value="End" style="ellipse;whiteSpace=wrap;html=1;fillColor=#f8cecc;strokeColor=#b85450;" parent="1" vertex="1">
          <mxGeometry x="1147.5" y="2710" width="120" height="80" as="geometry" />
        </mxCell>
        <mxCell id="YD1cp8Vs7nDSuRFwtXO4-197" value="" style="endArrow=classic;html=1;rounded=0;exitX=0.524;exitY=0.896;exitDx=0;exitDy=0;exitPerimeter=0;entryX=0.5;entryY=0;entryDx=0;entryDy=0;" parent="1" source="YD1cp8Vs7nDSuRFwtXO4-194" target="YD1cp8Vs7nDSuRFwtXO4-196" edge="1">
          <mxGeometry width="50" height="50" relative="1" as="geometry">
            <mxPoint x="932.5" y="2650" as="sourcePoint" />
            <mxPoint x="982.5" y="2600" as="targetPoint" />
          </mxGeometry>
        </mxCell>
        <mxCell id="YD1cp8Vs7nDSuRFwtXO4-198" value="" style="endArrow=classic;html=1;rounded=0;" parent="1" target="YD1cp8Vs7nDSuRFwtXO4-185" edge="1">
          <mxGeometry width="50" height="50" relative="1" as="geometry">
            <mxPoint x="1072.5" y="2260" as="sourcePoint" />
            <mxPoint x="1272.5" y="2600" as="targetPoint" />
          </mxGeometry>
        </mxCell>
        <mxCell id="YD1cp8Vs7nDSuRFwtXO4-199" value="&lt;font style=&quot;font-size: 18px;&quot;&gt;Create&lt;/font&gt;" style="rounded=0;whiteSpace=wrap;html=1;" parent="1" vertex="1">
          <mxGeometry x="1582.5" y="2300" width="120" height="60" as="geometry" />
        </mxCell>
        <mxCell id="YD1cp8Vs7nDSuRFwtXO4-200" value="" style="endArrow=classic;html=1;rounded=0;entryX=0.5;entryY=0;entryDx=0;entryDy=0;" parent="1" target="YD1cp8Vs7nDSuRFwtXO4-199" edge="1">
          <mxGeometry width="50" height="50" relative="1" as="geometry">
            <mxPoint x="1642.5" y="2260" as="sourcePoint" />
            <mxPoint x="1432.5" y="2200" as="targetPoint" />
          </mxGeometry>
        </mxCell>
        <mxCell id="YD1cp8Vs7nDSuRFwtXO4-201" value="&lt;font style=&quot;font-size: 18px;&quot;&gt;Ckeck Customer Exists&lt;/font&gt;" style="rhombus;whiteSpace=wrap;html=1;" parent="1" vertex="1">
          <mxGeometry x="1532.5" y="2430" width="220" height="100" as="geometry" />
        </mxCell>
        <mxCell id="YD1cp8Vs7nDSuRFwtXO4-202" value="" style="endArrow=classic;html=1;rounded=0;exitX=0.5;exitY=1;exitDx=0;exitDy=0;entryX=0.5;entryY=0;entryDx=0;entryDy=0;" parent="1" source="YD1cp8Vs7nDSuRFwtXO4-199" target="YD1cp8Vs7nDSuRFwtXO4-201" edge="1">
          <mxGeometry width="50" height="50" relative="1" as="geometry">
            <mxPoint x="1382.5" y="2250" as="sourcePoint" />
            <mxPoint x="1432.5" y="2200" as="targetPoint" />
          </mxGeometry>
        </mxCell>
        <mxCell id="YD1cp8Vs7nDSuRFwtXO4-203" value="&lt;font style=&quot;font-size: 18px;&quot;&gt;NotFound()&lt;/font&gt;" style="shape=callout;whiteSpace=wrap;html=1;boundedLbl=1;perimeter=calloutPerimeter;" parent="1" vertex="1">
          <mxGeometry x="1422.5" y="2580" width="120" height="80" as="geometry" />
        </mxCell>
        <mxCell id="YD1cp8Vs7nDSuRFwtXO4-204" value="&lt;font style=&quot;font-size: 18px;&quot;&gt;No&lt;/font&gt;" style="endArrow=classic;html=1;rounded=0;exitX=0;exitY=0.5;exitDx=0;exitDy=0;entryX=0.5;entryY=0;entryDx=0;entryDy=0;" parent="1" source="YD1cp8Vs7nDSuRFwtXO4-201" target="YD1cp8Vs7nDSuRFwtXO4-203" edge="1">
          <mxGeometry width="50" height="50" relative="1" as="geometry">
            <mxPoint x="1382.5" y="2490" as="sourcePoint" />
            <mxPoint x="1432.5" y="2440" as="targetPoint" />
            <Array as="points">
              <mxPoint x="1482.5" y="2480" />
            </Array>
          </mxGeometry>
        </mxCell>
        <mxCell id="YD1cp8Vs7nDSuRFwtXO4-205" value="End" style="ellipse;whiteSpace=wrap;html=1;fillColor=#f8cecc;strokeColor=#b85450;" parent="1" vertex="1">
          <mxGeometry x="1422.5" y="2710" width="120" height="80" as="geometry" />
        </mxCell>
        <mxCell id="YD1cp8Vs7nDSuRFwtXO4-206" value="" style="endArrow=classic;html=1;rounded=0;exitX=0.512;exitY=0.863;exitDx=0;exitDy=0;exitPerimeter=0;entryX=0.5;entryY=0;entryDx=0;entryDy=0;" parent="1" source="YD1cp8Vs7nDSuRFwtXO4-203" target="YD1cp8Vs7nDSuRFwtXO4-205" edge="1">
          <mxGeometry width="50" height="50" relative="1" as="geometry">
            <mxPoint x="1382.5" y="2480" as="sourcePoint" />
            <mxPoint x="1432.5" y="2430" as="targetPoint" />
          </mxGeometry>
        </mxCell>
        <mxCell id="YD1cp8Vs7nDSuRFwtXO4-208" value="&lt;font style=&quot;font-size: 18px;&quot;&gt;CreateOrder&lt;/font&gt;" style="rounded=0;whiteSpace=wrap;html=1;" parent="1" vertex="1">
          <mxGeometry x="1752.5" y="2580" width="120" height="60" as="geometry" />
        </mxCell>
        <mxCell id="YD1cp8Vs7nDSuRFwtXO4-209" value="&lt;span style=&quot;font-size: 18px;&quot;&gt;CreatedAtAction&lt;/span&gt;&lt;div&gt;&lt;span style=&quot;font-size: 18px;&quot;&gt;(CreatedOrder)&lt;/span&gt;&lt;/div&gt;" style="shape=callout;whiteSpace=wrap;html=1;boundedLbl=1;perimeter=calloutPerimeter;" parent="1" vertex="1">
          <mxGeometry x="1727.5" y="2710" width="170" height="100" as="geometry" />
        </mxCell>
        <mxCell id="YD1cp8Vs7nDSuRFwtXO4-210" value="" style="endArrow=classic;html=1;rounded=0;exitX=0.5;exitY=1;exitDx=0;exitDy=0;entryX=0.5;entryY=0;entryDx=0;entryDy=0;" parent="1" source="YD1cp8Vs7nDSuRFwtXO4-208" target="YD1cp8Vs7nDSuRFwtXO4-209" edge="1">
          <mxGeometry width="50" height="50" relative="1" as="geometry">
            <mxPoint x="1762.5" y="2630" as="sourcePoint" />
            <mxPoint x="1812.5" y="2580" as="targetPoint" />
          </mxGeometry>
        </mxCell>
        <mxCell id="YD1cp8Vs7nDSuRFwtXO4-211" value="" style="endArrow=classic;html=1;rounded=0;exitX=1;exitY=0.5;exitDx=0;exitDy=0;" parent="1" source="YD1cp8Vs7nDSuRFwtXO4-201" edge="1">
          <mxGeometry width="50" height="50" relative="1" as="geometry">
            <mxPoint x="1762.5" y="2630" as="sourcePoint" />
            <mxPoint x="1812.5" y="2580" as="targetPoint" />
            <Array as="points">
              <mxPoint x="1812.5" y="2480" />
            </Array>
          </mxGeometry>
        </mxCell>
        <mxCell id="YD1cp8Vs7nDSuRFwtXO4-212" value="&lt;font style=&quot;font-size: 18px;&quot;&gt;Yes&lt;/font&gt;" style="edgeLabel;html=1;align=center;verticalAlign=middle;resizable=0;points=[];" parent="YD1cp8Vs7nDSuRFwtXO4-211" vertex="1" connectable="0">
          <mxGeometry x="0.3865" y="-5" relative="1" as="geometry">
            <mxPoint x="5" y="-31" as="offset" />
          </mxGeometry>
        </mxCell>
        <mxCell id="YD1cp8Vs7nDSuRFwtXO4-213" value="End" style="ellipse;whiteSpace=wrap;html=1;fillColor=#f8cecc;strokeColor=#b85450;" parent="1" vertex="1">
          <mxGeometry x="1762.5" y="2860" width="120" height="80" as="geometry" />
        </mxCell>
        <mxCell id="YD1cp8Vs7nDSuRFwtXO4-214" value="" style="endArrow=classic;html=1;rounded=0;exitX=0.536;exitY=0.818;exitDx=0;exitDy=0;exitPerimeter=0;" parent="1" source="YD1cp8Vs7nDSuRFwtXO4-209" target="YD1cp8Vs7nDSuRFwtXO4-213" edge="1">
          <mxGeometry width="50" height="50" relative="1" as="geometry">
            <mxPoint x="1762.5" y="2630" as="sourcePoint" />
            <mxPoint x="1812.5" y="2580" as="targetPoint" />
          </mxGeometry>
        </mxCell>
        <mxCell id="YD1cp8Vs7nDSuRFwtXO4-216" value="&lt;font style=&quot;font-size: 18px;&quot;&gt;Delete&lt;/font&gt;" style="rounded=0;whiteSpace=wrap;html=1;" parent="1" vertex="1">
          <mxGeometry x="2077.5" y="2300" width="120" height="60" as="geometry" />
        </mxCell>
        <mxCell id="YD1cp8Vs7nDSuRFwtXO4-217" value="&lt;font style=&quot;font-size: 18px;&quot;&gt;Check Product exists&lt;/font&gt;" style="rhombus;whiteSpace=wrap;html=1;" parent="1" vertex="1">
          <mxGeometry x="2042.5" y="2430" width="190" height="80" as="geometry" />
        </mxCell>
        <mxCell id="YD1cp8Vs7nDSuRFwtXO4-218" value="&lt;font style=&quot;font-size: 18px;&quot;&gt;NotFound()&lt;/font&gt;" style="shape=callout;whiteSpace=wrap;html=1;boundedLbl=1;perimeter=calloutPerimeter;" parent="1" vertex="1">
          <mxGeometry x="1943.5" y="2580" width="120" height="80" as="geometry" />
        </mxCell>
        <mxCell id="YD1cp8Vs7nDSuRFwtXO4-219" value="" style="endArrow=classic;html=1;rounded=0;exitX=0;exitY=0.5;exitDx=0;exitDy=0;entryX=0.5;entryY=0;entryDx=0;entryDy=0;" parent="1" source="YD1cp8Vs7nDSuRFwtXO4-217" target="YD1cp8Vs7nDSuRFwtXO4-218" edge="1">
          <mxGeometry width="50" height="50" relative="1" as="geometry">
            <mxPoint x="1682.5" y="2490" as="sourcePoint" />
            <mxPoint x="1732.5" y="2440" as="targetPoint" />
            <Array as="points">
              <mxPoint x="2002.5" y="2470" />
            </Array>
          </mxGeometry>
        </mxCell>
        <mxCell id="YD1cp8Vs7nDSuRFwtXO4-220" value="&lt;font style=&quot;font-size: 18px;&quot;&gt;No&lt;/font&gt;" style="edgeLabel;html=1;align=center;verticalAlign=middle;resizable=0;points=[];" parent="YD1cp8Vs7nDSuRFwtXO4-219" vertex="1" connectable="0">
          <mxGeometry x="0.2392" y="2" relative="1" as="geometry">
            <mxPoint y="1" as="offset" />
          </mxGeometry>
        </mxCell>
        <mxCell id="YD1cp8Vs7nDSuRFwtXO4-221" value="End" style="ellipse;whiteSpace=wrap;html=1;fillColor=#f8cecc;strokeColor=#b85450;" parent="1" vertex="1">
          <mxGeometry x="1952.5" y="2720" width="120" height="80" as="geometry" />
        </mxCell>
        <mxCell id="YD1cp8Vs7nDSuRFwtXO4-222" value="" style="endArrow=classic;html=1;rounded=0;exitX=0.56;exitY=0.848;exitDx=0;exitDy=0;exitPerimeter=0;entryX=0.5;entryY=0;entryDx=0;entryDy=0;" parent="1" source="YD1cp8Vs7nDSuRFwtXO4-218" target="YD1cp8Vs7nDSuRFwtXO4-221" edge="1">
          <mxGeometry width="50" height="50" relative="1" as="geometry">
            <mxPoint x="1682.5" y="2490" as="sourcePoint" />
            <mxPoint x="1732.5" y="2440" as="targetPoint" />
          </mxGeometry>
        </mxCell>
        <mxCell id="YD1cp8Vs7nDSuRFwtXO4-223" value="&lt;font style=&quot;font-size: 19px;&quot;&gt;NoContent()&lt;/font&gt;" style="shape=callout;whiteSpace=wrap;html=1;boundedLbl=1;perimeter=calloutPerimeter;" parent="1" vertex="1">
          <mxGeometry x="2222.5" y="2570" width="120" height="80" as="geometry" />
        </mxCell>
        <mxCell id="YD1cp8Vs7nDSuRFwtXO4-224" value="&lt;font style=&quot;font-size: 18px;&quot;&gt;Yes&lt;/font&gt;" style="endArrow=classic;html=1;rounded=0;exitX=1;exitY=0.5;exitDx=0;exitDy=0;entryX=0.5;entryY=0;entryDx=0;entryDy=0;" parent="1" source="YD1cp8Vs7nDSuRFwtXO4-217" target="YD1cp8Vs7nDSuRFwtXO4-223" edge="1">
          <mxGeometry width="50" height="50" relative="1" as="geometry">
            <mxPoint x="1682.5" y="2590" as="sourcePoint" />
            <mxPoint x="1732.5" y="2540" as="targetPoint" />
            <Array as="points">
              <mxPoint x="2282.5" y="2470" />
            </Array>
          </mxGeometry>
        </mxCell>
        <mxCell id="YD1cp8Vs7nDSuRFwtXO4-225" value="End" style="ellipse;whiteSpace=wrap;html=1;fillColor=#f8cecc;strokeColor=#b85450;" parent="1" vertex="1">
          <mxGeometry x="2232.5" y="2700" width="120" height="80" as="geometry" />
        </mxCell>
        <mxCell id="YD1cp8Vs7nDSuRFwtXO4-226" value="" style="endArrow=classic;html=1;rounded=0;exitX=0.583;exitY=0.742;exitDx=0;exitDy=0;exitPerimeter=0;entryX=0.5;entryY=0;entryDx=0;entryDy=0;" parent="1" source="YD1cp8Vs7nDSuRFwtXO4-223" target="YD1cp8Vs7nDSuRFwtXO4-225" edge="1">
          <mxGeometry width="50" height="50" relative="1" as="geometry">
            <mxPoint x="1682.5" y="2580" as="sourcePoint" />
            <mxPoint x="1732.5" y="2530" as="targetPoint" />
          </mxGeometry>
        </mxCell>
        <mxCell id="YD1cp8Vs7nDSuRFwtXO4-227" value="" style="endArrow=classic;html=1;rounded=0;exitX=0.5;exitY=1;exitDx=0;exitDy=0;entryX=0.5;entryY=0;entryDx=0;entryDy=0;" parent="1" source="YD1cp8Vs7nDSuRFwtXO4-216" target="YD1cp8Vs7nDSuRFwtXO4-217" edge="1">
          <mxGeometry width="50" height="50" relative="1" as="geometry">
            <mxPoint x="1682.5" y="2600" as="sourcePoint" />
            <mxPoint x="1732.5" y="2550" as="targetPoint" />
          </mxGeometry>
        </mxCell>
        <mxCell id="I-pay93XQwYCPUHcB1Gg-3" style="edgeStyle=orthogonalEdgeStyle;rounded=0;orthogonalLoop=1;jettySize=auto;html=1;exitX=0.5;exitY=1;exitDx=0;exitDy=0;entryX=0.5;entryY=0;entryDx=0;entryDy=0;" parent="1" source="I-pay93XQwYCPUHcB1Gg-1" target="YD1cp8Vs7nDSuRFwtXO4-29" edge="1">
          <mxGeometry relative="1" as="geometry" />
        </mxCell>
        <mxCell id="I-pay93XQwYCPUHcB1Gg-1" value="&lt;span style=&quot;font-size: 14px;&quot;&gt;&lt;b&gt;Send Token&lt;/b&gt;&lt;/span&gt;" style="whiteSpace=wrap;html=1;rounded=0;shape=callout;boundedLbl=1;fixedSize=1;perimeter=calloutPerimeter;" parent="1" vertex="1">
          <mxGeometry x="652.5" y="386" width="120" height="60" as="geometry" />
        </mxCell>
        <mxCell id="I-pay93XQwYCPUHcB1Gg-4" value="&lt;font style=&quot;font-size: 18px;&quot;&gt;Authorize&lt;br&gt;Admin&lt;/font&gt;" style="rhombus;whiteSpace=wrap;html=1;" parent="1" vertex="1">
          <mxGeometry x="685" y="1109.29" width="150" height="90" as="geometry" />
        </mxCell>
        <mxCell id="I-pay93XQwYCPUHcB1Gg-5" value="" style="endArrow=classic;html=1;rounded=0;" parent="1" target="I-pay93XQwYCPUHcB1Gg-4" edge="1">
          <mxGeometry width="50" height="50" relative="1" as="geometry">
            <mxPoint x="760" y="1069.29" as="sourcePoint" />
            <mxPoint x="345" y="1199.29" as="targetPoint" />
          </mxGeometry>
        </mxCell>
        <mxCell id="I-pay93XQwYCPUHcB1Gg-6" value="&lt;font style=&quot;font-size: 18px;&quot;&gt;Yes&lt;/font&gt;" style="endArrow=classic;html=1;rounded=0;exitX=1;exitY=0.5;exitDx=0;exitDy=0;entryX=0.5;entryY=0;entryDx=0;entryDy=0;" parent="1" source="I-pay93XQwYCPUHcB1Gg-4" target="I-pay93XQwYCPUHcB1Gg-21" edge="1">
          <mxGeometry x="0.5294" width="50" height="50" relative="1" as="geometry">
            <mxPoint x="835" y="1159.29" as="sourcePoint" />
            <mxPoint x="1005" y="1209.29" as="targetPoint" />
            <Array as="points">
              <mxPoint x="1015" y="1154.29" />
            </Array>
            <mxPoint y="1" as="offset" />
          </mxGeometry>
        </mxCell>
        <mxCell id="I-pay93XQwYCPUHcB1Gg-7" value="&lt;font style=&quot;font-size: 18px;&quot;&gt;Check Product exists&lt;/font&gt;" style="rhombus;whiteSpace=wrap;html=1;" parent="1" vertex="1">
          <mxGeometry x="920" y="1379.29" width="190" height="80" as="geometry" />
        </mxCell>
        <mxCell id="I-pay93XQwYCPUHcB1Gg-9" value="&lt;font style=&quot;font-size: 18px;&quot;&gt;No&lt;/font&gt;" style="endArrow=classic;html=1;rounded=0;exitX=0;exitY=0.5;exitDx=0;exitDy=0;entryX=0.5;entryY=0;entryDx=0;entryDy=0;" parent="1" source="I-pay93XQwYCPUHcB1Gg-7" target="I-pay93XQwYCPUHcB1Gg-8" edge="1">
          <mxGeometry x="0.2" width="50" height="50" relative="1" as="geometry">
            <mxPoint x="975" y="1269.29" as="sourcePoint" />
            <mxPoint x="1025" y="1219.29" as="targetPoint" />
            <Array as="points">
              <mxPoint x="875" y="1419.29" />
            </Array>
            <mxPoint y="-1" as="offset" />
          </mxGeometry>
        </mxCell>
        <mxCell id="I-pay93XQwYCPUHcB1Gg-10" value="End" style="ellipse;whiteSpace=wrap;html=1;fillColor=#f8cecc;strokeColor=#b85450;" parent="1" vertex="1">
          <mxGeometry x="815" y="1649.29" width="120" height="80" as="geometry" />
        </mxCell>
        <mxCell id="I-pay93XQwYCPUHcB1Gg-11" value="" style="endArrow=classic;html=1;rounded=0;exitX=0.524;exitY=0.898;exitDx=0;exitDy=0;exitPerimeter=0;entryX=0.5;entryY=0;entryDx=0;entryDy=0;" parent="1" source="I-pay93XQwYCPUHcB1Gg-8" target="I-pay93XQwYCPUHcB1Gg-10" edge="1">
          <mxGeometry width="50" height="50" relative="1" as="geometry">
            <mxPoint x="975" y="1269.29" as="sourcePoint" />
            <mxPoint x="1025" y="1219.29" as="targetPoint" />
            <Array as="points" />
          </mxGeometry>
        </mxCell>
        <mxCell id="I-pay93XQwYCPUHcB1Gg-12" value="&lt;font style=&quot;font-size: 18px;&quot;&gt;Forbidden&lt;/font&gt;" style="shape=callout;whiteSpace=wrap;html=1;boundedLbl=1;perimeter=calloutPerimeter;" parent="1" vertex="1">
          <mxGeometry x="581" y="1239.29" width="120" height="80" as="geometry" />
        </mxCell>
        <mxCell id="I-pay93XQwYCPUHcB1Gg-13" value="&lt;font style=&quot;font-size: 18px;&quot;&gt;No&lt;/font&gt;" style="endArrow=classic;html=1;rounded=0;exitX=0;exitY=0.5;exitDx=0;exitDy=0;entryX=0.5;entryY=0;entryDx=0;entryDy=0;" parent="1" source="I-pay93XQwYCPUHcB1Gg-4" edge="1">
          <mxGeometry width="50" height="50" relative="1" as="geometry">
            <mxPoint x="745" y="1399.29" as="sourcePoint" />
            <mxPoint x="645" y="1239.29" as="targetPoint" />
            <Array as="points">
              <mxPoint x="645" y="1154.29" />
            </Array>
          </mxGeometry>
        </mxCell>
        <mxCell id="I-pay93XQwYCPUHcB1Gg-14" value="End" style="ellipse;whiteSpace=wrap;html=1;fillColor=#f8cecc;strokeColor=#b85450;" parent="1" vertex="1">
          <mxGeometry x="581" y="1369.29" width="120" height="80" as="geometry" />
        </mxCell>
        <mxCell id="I-pay93XQwYCPUHcB1Gg-15" value="" style="endArrow=classic;html=1;rounded=0;exitX=0.478;exitY=0.856;exitDx=0;exitDy=0;exitPerimeter=0;entryX=0.5;entryY=0;entryDx=0;entryDy=0;" parent="1" edge="1">
          <mxGeometry width="50" height="50" relative="1" as="geometry">
            <mxPoint x="642.3600000000001" y="1307.77" as="sourcePoint" />
            <mxPoint x="645" y="1369.29" as="targetPoint" />
          </mxGeometry>
        </mxCell>
        <mxCell id="I-pay93XQwYCPUHcB1Gg-16" value="&lt;font style=&quot;font-size: 18px;&quot;&gt;Ok(updated product)&lt;/font&gt;" style="shape=callout;whiteSpace=wrap;html=1;boundedLbl=1;perimeter=calloutPerimeter;" parent="1" vertex="1">
          <mxGeometry x="1111" y="1509.29" width="120" height="80" as="geometry" />
        </mxCell>
        <mxCell id="I-pay93XQwYCPUHcB1Gg-17" value="&lt;font style=&quot;font-size: 18px;&quot;&gt;Yes&lt;/font&gt;" style="endArrow=classic;html=1;rounded=0;entryX=0.5;entryY=0;entryDx=0;entryDy=0;exitX=1;exitY=0.5;exitDx=0;exitDy=0;" parent="1" source="I-pay93XQwYCPUHcB1Gg-7" edge="1">
          <mxGeometry x="0.2222" width="50" height="50" relative="1" as="geometry">
            <mxPoint x="1035" y="1379.29" as="sourcePoint" />
            <mxPoint x="1175" y="1509.29" as="targetPoint" />
            <Array as="points">
              <mxPoint x="1175" y="1419.29" />
              <mxPoint x="1175" y="1449.29" />
            </Array>
            <mxPoint y="1" as="offset" />
          </mxGeometry>
        </mxCell>
        <mxCell id="I-pay93XQwYCPUHcB1Gg-18" value="End" style="ellipse;whiteSpace=wrap;html=1;fillColor=#f8cecc;strokeColor=#b85450;" parent="1" vertex="1">
          <mxGeometry x="1111" y="1646.43" width="120" height="80" as="geometry" />
        </mxCell>
        <mxCell id="I-pay93XQwYCPUHcB1Gg-19" value="" style="endArrow=classic;html=1;rounded=0;exitX=0.554;exitY=0.833;exitDx=0;exitDy=0;exitPerimeter=0;" parent="1" edge="1">
          <mxGeometry width="50" height="50" relative="1" as="geometry">
            <mxPoint x="1171.4800000000005" y="1573.07" as="sourcePoint" />
            <mxPoint x="1173.9874859722304" y="1646.4356959030877" as="targetPoint" />
          </mxGeometry>
        </mxCell>
        <mxCell id="I-pay93XQwYCPUHcB1Gg-20" style="edgeStyle=orthogonalEdgeStyle;rounded=0;orthogonalLoop=1;jettySize=auto;html=1;exitX=0.5;exitY=1;exitDx=0;exitDy=0;" parent="1" edge="1">
          <mxGeometry relative="1" as="geometry">
            <mxPoint x="1175" y="1726.43" as="sourcePoint" />
            <mxPoint x="1175" y="1726.43" as="targetPoint" />
          </mxGeometry>
        </mxCell>
        <mxCell id="I-pay93XQwYCPUHcB1Gg-21" value="&lt;font style=&quot;font-size: 18px;&quot;&gt;Update&lt;/font&gt;" style="rounded=0;whiteSpace=wrap;html=1;" parent="1" vertex="1">
          <mxGeometry x="955" y="1239.29" width="120" height="60" as="geometry" />
        </mxCell>
        <mxCell id="I-pay93XQwYCPUHcB1Gg-22" value="" style="endArrow=classic;html=1;rounded=0;exitX=0.5;exitY=1;exitDx=0;exitDy=0;" parent="1" source="I-pay93XQwYCPUHcB1Gg-21" target="I-pay93XQwYCPUHcB1Gg-7" edge="1">
          <mxGeometry width="50" height="50" relative="1" as="geometry">
            <mxPoint x="805" y="1609.29" as="sourcePoint" />
            <mxPoint x="855" y="1559.29" as="targetPoint" />
          </mxGeometry>
        </mxCell>
        <mxCell id="I-pay93XQwYCPUHcB1Gg-23" value="&lt;font style=&quot;font-size: 18px;&quot;&gt;Create&lt;/font&gt;" style="rounded=0;whiteSpace=wrap;html=1;" parent="1" vertex="1">
          <mxGeometry x="2165" y="1250" width="120" height="60" as="geometry" />
        </mxCell>
        <mxCell id="I-pay93XQwYCPUHcB1Gg-24" value="&lt;font style=&quot;font-size: 18px;&quot;&gt;Authorize&lt;br&gt;Admin&lt;/font&gt;" style="rhombus;whiteSpace=wrap;html=1;" parent="1" vertex="1">
          <mxGeometry x="2030" y="1120" width="150" height="90" as="geometry" />
        </mxCell>
        <mxCell id="I-pay93XQwYCPUHcB1Gg-26" value="&lt;font style=&quot;font-size: 18px;&quot;&gt;Yes&lt;/font&gt;" style="endArrow=classic;html=1;rounded=0;entryX=0.5;entryY=0;entryDx=0;entryDy=0;" parent="1" target="I-pay93XQwYCPUHcB1Gg-23" edge="1">
          <mxGeometry x="0.1111" width="50" height="50" relative="1" as="geometry">
            <mxPoint x="2175" y="1165" as="sourcePoint" />
            <mxPoint x="1785" y="1400" as="targetPoint" />
            <Array as="points">
              <mxPoint x="2225" y="1165" />
            </Array>
            <mxPoint as="offset" />
          </mxGeometry>
        </mxCell>
        <mxCell id="I-pay93XQwYCPUHcB1Gg-27" value="&lt;font style=&quot;font-size: 18px;&quot;&gt;No&lt;/font&gt;" style="endArrow=classic;html=1;rounded=0;exitX=0;exitY=0.5;exitDx=0;exitDy=0;" parent="1" source="I-pay93XQwYCPUHcB1Gg-24" target="I-pay93XQwYCPUHcB1Gg-28" edge="1">
          <mxGeometry width="50" height="50" relative="1" as="geometry">
            <mxPoint x="1975" y="1170" as="sourcePoint" />
            <mxPoint x="2025" y="1120" as="targetPoint" />
            <Array as="points">
              <mxPoint x="1995" y="1165" />
            </Array>
          </mxGeometry>
        </mxCell>
        <mxCell id="I-pay93XQwYCPUHcB1Gg-28" value="&lt;font style=&quot;font-size: 18px;&quot;&gt;Forbidden&lt;/font&gt;" style="shape=document;whiteSpace=wrap;html=1;boundedLbl=1;" parent="1" vertex="1">
          <mxGeometry x="1935" y="1250" width="120" height="80" as="geometry" />
        </mxCell>
        <mxCell id="I-pay93XQwYCPUHcB1Gg-29" value="End" style="ellipse;whiteSpace=wrap;html=1;fillColor=#f8cecc;strokeColor=#b85450;" parent="1" vertex="1">
          <mxGeometry x="1935" y="1370" width="120" height="80" as="geometry" />
        </mxCell>
        <mxCell id="I-pay93XQwYCPUHcB1Gg-30" value="" style="endArrow=classic;html=1;rounded=0;exitX=0.538;exitY=0.779;exitDx=0;exitDy=0;exitPerimeter=0;" parent="1" source="I-pay93XQwYCPUHcB1Gg-28" target="I-pay93XQwYCPUHcB1Gg-29" edge="1">
          <mxGeometry width="50" height="50" relative="1" as="geometry">
            <mxPoint x="1975" y="1170" as="sourcePoint" />
            <mxPoint x="2025" y="1120" as="targetPoint" />
          </mxGeometry>
        </mxCell>
        <mxCell id="I-pay93XQwYCPUHcB1Gg-31" value="" style="endArrow=classic;html=1;rounded=0;exitX=0.5;exitY=1;exitDx=0;exitDy=0;entryX=0.5;entryY=0;entryDx=0;entryDy=0;" parent="1" source="I-pay93XQwYCPUHcB1Gg-23" target="I-pay93XQwYCPUHcB1Gg-32" edge="1">
          <mxGeometry width="50" height="50" relative="1" as="geometry">
            <mxPoint x="1975" y="1170" as="sourcePoint" />
            <mxPoint x="2305" y="1380" as="targetPoint" />
          </mxGeometry>
        </mxCell>
        <mxCell id="I-pay93XQwYCPUHcB1Gg-32" value="&lt;font style=&quot;font-size: 18px;&quot;&gt;CreatedAtAction&lt;/font&gt;&lt;div&gt;&lt;font style=&quot;font-size: 18px;&quot;&gt;(CreatedProduct)&lt;/font&gt;&lt;/div&gt;" style="shape=callout;whiteSpace=wrap;html=1;boundedLbl=1;perimeter=calloutPerimeter;" parent="1" vertex="1">
          <mxGeometry x="2150" y="1370" width="150" height="100" as="geometry" />
        </mxCell>
        <mxCell id="I-pay93XQwYCPUHcB1Gg-33" value="End" style="ellipse;whiteSpace=wrap;html=1;fillColor=#f8cecc;strokeColor=#b85450;" parent="1" vertex="1">
          <mxGeometry x="2172" y="1520" width="120" height="80" as="geometry" />
        </mxCell>
        <mxCell id="I-pay93XQwYCPUHcB1Gg-34" value="" style="endArrow=classic;html=1;rounded=0;exitX=0.565;exitY=0.775;exitDx=0;exitDy=0;exitPerimeter=0;" parent="1" source="I-pay93XQwYCPUHcB1Gg-32" target="I-pay93XQwYCPUHcB1Gg-33" edge="1">
          <mxGeometry width="50" height="50" relative="1" as="geometry">
            <mxPoint x="1975" y="1160" as="sourcePoint" />
            <mxPoint x="2025" y="1110" as="targetPoint" />
          </mxGeometry>
        </mxCell>
      </root>
    </mxGraphModel>
  </diagram>
</mxfile>
